#N canvas 0 0 1366 685 10;
#X declare -lib mrpeach;
#X obj 301 78 metro 250;
#X obj 299 55 tgl 15 0 empty empty empty 17 7 0 10 -262144 -1 -1 0
1;
#X obj 286 429 osc~;
#X obj 289 520 dac~;
#X obj 302 184 select 0 1 2;
#X floatatom 341 439 5 0 0 0 - - -;
#X msg 400 390 send /x \$1;
#X msg 518 387 send /y \$1;
#X msg 630 388 send /z \$1;
#X obj 286 469 *~ 0;
#X floatatom 263 263 5 0 0 0 - - -;
#X floatatom 322 270 5 0 0 0 - - -;
#X floatatom 380 268 5 0 0 0 - - -;
#X obj 794 487 import mrpeach;
#X obj 545 626 udpsend;
#X obj 541 501 packOSC;
#X msg 449 564 disconnect;
#X obj 302 125 counter 2;
#X msg 594 566 connect 10.70.56.160 12000;
#X connect 0 0 17 0;
#X connect 1 0 0 0;
#X connect 2 0 9 0;
#X connect 4 0 10 0;
#X connect 4 1 11 0;
#X connect 4 2 12 0;
#X connect 5 0 9 1;
#X connect 6 0 15 0;
#X connect 7 0 15 0;
#X connect 8 0 15 0;
#X connect 9 0 3 0;
#X connect 9 0 3 1;
#X connect 10 0 6 0;
#X connect 10 0 2 0;
#X connect 11 0 7 0;
#X connect 11 0 2 0;
#X connect 12 0 8 0;
#X connect 12 0 2 0;
#X connect 15 0 14 0;
#X connect 16 0 14 0;
#X connect 17 0 4 0;
#X connect 18 0 14 0;
